<?xml version="1.0" standalone="no"?>
<!DOCTYPE svg PUBLIC "-//W3C//DTD SVG 20010904//EN"
 "http://www.w3.org/TR/2001/REC-SVG-20010904/DTD/svg10.dtd">
<svg version="1.0" xmlns="http://www.w3.org/2000/svg"
 width="5000.000000pt" height="1207.000000pt" viewBox="0 0 5000.000000 1207.000000"
 preserveAspectRatio="xMidYMid meet">

<g transform="translate(0.000000,1207.000000) scale(0.100000,-0.100000)"
fill="#000000" stroke="none">
<path d="M3400 9009 c-750 -34 -1355 -140 -1805 -316 -587 -231 -917 -573
-1012 -1051 -21 -106 -24 -386 -5 -477 66 -312 219 -527 512 -719 307 -202
650 -324 1095 -390 420 -62 745 -96 1265 -131 1255 -86 1610 -165 1610 -359 0
-59 -53 -96 -186 -131 -228 -59 -819 -78 -1394 -44 -1210 71 -2259 396 -2868
888 -34 28 -64 51 -67 51 -3 0 -4 -568 -3 -1262 l3 -1262 120 -38 c699 -221
2123 -437 3159 -480 443 -18 1009 6 1436 62 758 99 1333 309 1708 624 261 220
425 514 471 850 14 99 14 322 0 406 -26 162 -110 344 -216 467 -149 175 -421
346 -690 433 -341 111 -993 207 -1778 260 -82 6 -343 15 -580 20 -538 12 -783
37 -993 102 -137 42 -224 108 -238 182 -20 109 126 181 457 223 199 26 990 26
1239 0 778 -80 1501 -271 2089 -553 85 -41 156 -73 158 -71 4 5 324 2199 321
2202 -2 1 -57 23 -123 48 -454 172 -1127 308 -2000 406 -574 65 -1136 85
-1685 60z"/>
<path d="M17085 9014 c-184 -11 -368 -27 -505 -45 -920 -116 -1683 -450 -2196
-963 -306 -307 -516 -678 -624 -1106 -109 -428 -117 -937 -24 -1390 74 -360
245 -726 474 -1015 85 -107 273 -293 390 -386 200 -160 386 -275 633 -394 483
-232 1003 -361 1682 -417 194 -16 806 -16 1000 0 884 73 1553 284 2120 670
151 102 230 167 364 297 299 289 490 594 614 981 133 412 168 928 97 1397
-131 859 -622 1500 -1475 1925 -462 230 -984 367 -1630 428 -150 14 -782 26
-920 18z m730 -2275 c540 -44 925 -206 1033 -436 23 -50 27 -71 27 -153 0 -88
-3 -101 -33 -162 -113 -229 -490 -380 -1069 -429 -163 -13 -716 -7 -853 11
-416 52 -698 152 -850 301 -190 186 -162 453 63 613 218 154 558 242 1032 266
181 9 458 4 650 -11z"/>
<path d="M45490 9009 c-750 -34 -1355 -140 -1805 -316 -587 -231 -917 -573
-1012 -1051 -21 -106 -24 -386 -5 -477 66 -312 219 -527 512 -719 307 -202
650 -324 1095 -390 420 -62 745 -96 1265 -131 1255 -86 1610 -165 1610 -359 0
-59 -53 -96 -186 -131 -228 -59 -819 -78 -1394 -44 -1210 71 -2259 396 -2868
888 -34 28 -64 51 -67 51 -3 0 -4 -568 -3 -1262 l3 -1262 120 -38 c699 -221
2123 -437 3159 -480 443 -18 1009 6 1436 62 758 99 1333 309 1708 624 261 220
425 514 471 850 14 99 14 322 0 406 -26 162 -110 344 -216 467 -149 175 -421
346 -690 433 -341 111 -993 207 -1778 260 -82 6 -343 15 -580 20 -538 12 -783
37 -993 102 -137 42 -224 108 -238 182 -20 109 126 181 457 223 199 26 990 26
1239 0 778 -80 1501 -271 2089 -553 85 -41 156 -73 158 -71 4 5 324 2199 321
2202 -2 1 -57 23 -123 48 -454 172 -1127 308 -2000 406 -574 65 -1136 85
-1685 60z"/>
<path d="M7367 8053 c-4 -467 -7 -1005 -7 -1196 l0 -348 108 6 c212 12 2115
75 2119 71 5 -4 -409 -3089 -423 -3158 l-6 -28 1286 0 c1022 0 1286 3 1286 13
-1 6 -99 723 -219 1592 -120 869 -217 1581 -216 1583 3 3 1976 -64 2133 -73
l102 -6 0 1053 c0 579 -3 1117 -7 1196 l-6 142 -3072 0 -3072 0 -6 -847z"/>
<path d="M21430 6150 l0 -2750 1401 0 c1329 0 1400 1 1395 18 -7 20 -626 2720
-629 2741 -1 10 20 21 61 35 l63 20 1407 -1407 1407 -1407 1008 0 1007 0 0
2750 0 2750 -1344 0 c-1275 0 -1344 -1 -1340 -17 3 -10 123 -553 268 -1208
l263 -1190 -29 -13 c-15 -6 -48 -17 -71 -24 l-44 -11 -1372 1231 -1373 1232
-1039 0 -1039 0 0 -2750z"/>
<path d="M28920 6150 l0 -2750 3170 0 3170 0 0 1143 c0 629 -2 1146 -4 1148
-4 3 -3509 -167 -3998 -195 l-108 -6 0 200 0 200 23 0 c65 0 2672 -70 2790
-75 l137 -5 0 364 0 364 -117 -4 c-135 -6 -2728 -74 -2791 -74 l-42 0 0 184 0
184 153 -5 c192 -5 3596 -73 3677 -73 l60 0 0 1075 0 1075 -3060 0 -3060 0 0
-2750z"/>
<path d="M35560 6150 l0 -2750 1219 0 1219 0 -4 38 c-3 20 -38 444 -79 942
-41 498 -77 927 -80 953 l-6 48 598 -3 598 -4 97 -26 c174 -48 324 -142 414
-261 202 -268 263 -701 173 -1228 -18 -109 -87 -397 -104 -441 -7 -17 64 -18
1404 -18 l1411 0 5 23 c25 113 34 503 15 657 -26 206 -85 410 -163 567 -245
486 -743 827 -1393 953 -257 49 -315 53 -869 59 l-530 6 -3 66 -3 66 278 6
c795 18 1416 132 1838 337 392 191 606 459 681 855 25 132 23 402 -5 559 -92
520 -378 845 -939 1065 -337 132 -688 204 -1287 263 -87 8 -722 12 -2302 15
l-2183 4 0 -2751z m4165 447 c225 -54 318 -144 285 -276 -17 -69 -51 -106
-133 -145 -146 -71 -117 -69 -1139 -73 l-918 -4 0 261 0 261 918 -4 c816 -3
925 -5 987 -20z"/>
</g>
</svg>
